<svg aria-hidden="true" style="position: absolute; width: 0; height: 0; overflow: hidden;" version="1.1" xmlns="http://www.w3.org/2000/svg" xmlns:xlink="http://www.w3.org/1999/xlink">
	<defs>
		<symbol id="icon-arrow-back-outline" viewBox="0 0 32 32">
			<path d="M25.333 14.667h-15.813l4.84-5.813c0.226-0.272 0.335-0.623 0.303-0.976s-0.204-0.678-0.476-0.904c-0.272-0.226-0.623-0.335-0.976-0.303s-0.678 0.204-0.904 0.476l-6.667 8c-0.045 0.064-0.085 0.13-0.12 0.2 0 0.067 0 0.107-0.093 0.173-0.060 0.153-0.092 0.316-0.093 0.48 0.001 0.164 0.033 0.327 0.093 0.48 0 0.067 0 0.107 0.093 0.173 0.035 0.070 0.075 0.136 0.12 0.2l6.667 8c0.125 0.151 0.282 0.272 0.46 0.355s0.371 0.126 0.567 0.125c0.312 0.001 0.613-0.108 0.853-0.307 0.135-0.112 0.247-0.249 0.328-0.404s0.132-0.325 0.148-0.5c0.016-0.175-0.002-0.351-0.055-0.518s-0.137-0.323-0.249-0.458l-4.84-5.813h15.813c0.354 0 0.693-0.14 0.943-0.39s0.39-0.589 0.39-0.943-0.14-0.693-0.39-0.943c-0.25-0.25-0.589-0.391-0.943-0.391z">
			</path>
		</symbol>
		<symbol id="icon-arrow-back-outline-2" viewBox="0 0 32 32">
			<path d="M6.667 17.333h15.813l-4.84 5.813c-0.226 0.272-0.335 0.623-0.303 0.976s0.204 0.678 0.476 0.904c0.272 0.226 0.623 0.335 0.976 0.303s0.678-0.204 0.904-0.476l6.667-8c0.045-0.064 0.085-0.131 0.12-0.2 0-0.067 0-0.107 0.093-0.173 0.060-0.153 0.092-0.316 0.093-0.48-0.001-0.164-0.033-0.327-0.093-0.48 0-0.067 0-0.107-0.093-0.173-0.035-0.069-0.075-0.136-0.12-0.2l-6.667-8c-0.125-0.151-0.282-0.272-0.46-0.354s-0.371-0.126-0.567-0.125c-0.311-0.001-0.613 0.108-0.853 0.307-0.135 0.112-0.247 0.249-0.329 0.405s-0.132 0.325-0.148 0.5c-0.016 0.175 0.003 0.351 0.055 0.518s0.137 0.323 0.249 0.458l4.84 5.813h-15.813c-0.354 0-0.693 0.14-0.943 0.39s-0.391 0.589-0.391 0.943 0.14 0.693 0.391 0.943c0.25 0.25 0.589 0.391 0.943 0.391z">
			</path>
		</symbol>
		<symbol id="icon-arrow-down" viewBox="0 0 32 32">
			<path stroke-linejoin="round" stroke-linecap="round" stroke-miterlimit="4" stroke-width="2.4615" d="M8.615 12.308l7.385 7.385 7.385-7.385">
			</path>
		</symbol>
		<symbol id="icon-dellivery" viewBox="0 0 32 32">
			<path d="M8.667 25.333h-2.667c-0.368 0-0.667-0.299-0.667-0.667s0.299-0.667 0.667-0.667h2.667c0.368 0 0.667 0.299 0.667 0.667s-0.299 0.667-0.667 0.667z">
			</path>
			<path d="M30.333 25.333h-1.667c-0.368 0-0.667-0.299-0.667-0.667s0.299-0.667 0.667-0.667h1.113l0.899-4.789c-0.012-2.451-2.105-4.544-4.679-4.544h-4.377l-2.121 9.333h3.832c0.368 0 0.667 0.299 0.667 0.667s-0.299 0.667-0.667 0.667h-4.667c-0.203 0-0.395-0.092-0.521-0.251-0.127-0.157-0.175-0.365-0.129-0.563l2.424-10.667c0.069-0.305 0.339-0.52 0.651-0.52h4.909c3.308 0 6 2.692 6 6l-1.012 5.456c-0.059 0.316-0.333 0.544-0.655 0.544z">
			</path>
			<path d="M26 28c-1.837 0-3.333-1.495-3.333-3.333s1.496-3.333 3.333-3.333c1.837 0 3.333 1.495 3.333 3.333s-1.496 3.333-3.333 3.333zM26 22.667c-1.103 0-2 0.897-2 2s0.897 2 2 2c1.103 0 2-0.897 2-2s-0.897-2-2-2z">
			</path>
			<path d="M11.333 28c-1.837 0-3.333-1.495-3.333-3.333s1.496-3.333 3.333-3.333c1.837 0 3.333 1.495 3.333 3.333s-1.496 3.333-3.333 3.333zM11.333 22.667c-1.103 0-2 0.897-2 2s0.897 2 2 2c1.103 0 2-0.897 2-2s-0.897-2-2-2z">
			</path>
			<path d="M8.667 13.333h-5.333c-0.368 0-0.667-0.299-0.667-0.667s0.299-0.667 0.667-0.667h5.333c0.368 0 0.667 0.299 0.667 0.667s-0.299 0.667-0.667 0.667z">
			</path>
			<path d="M8.667 17.333h-6.667c-0.368 0-0.667-0.299-0.667-0.667s0.299-0.667 0.667-0.667h6.667c0.368 0 0.667 0.299 0.667 0.667s-0.299 0.667-0.667 0.667z">
			</path>
			<path d="M8.667 21.333h-8c-0.368 0-0.667-0.299-0.667-0.667s0.299-0.667 0.667-0.667h8c0.368 0 0.667 0.299 0.667 0.667s-0.299 0.667-0.667 0.667z">
			</path>
			<path d="M18.667 25.333h-4.667c-0.368 0-0.667-0.299-0.667-0.667s0.299-0.667 0.667-0.667h4.135l3.029-13.333h-15.164c-0.368 0-0.667-0.299-0.667-0.667s0.299-0.667 0.667-0.667h16c0.203 0 0.395 0.092 0.521 0.251 0.127 0.157 0.175 0.365 0.129 0.563l-3.333 14.667c-0.069 0.305-0.34 0.52-0.651 0.52z">
			</path>
		</symbol>
		<symbol id="icon-dollar" viewBox="0 0 32 32">
			<path d="M16 32c8.823 0 16-7.177 16-16 0.004-2.116-0.415-4.212-1.231-6.164-0.086-0.21-0.278-0.359-0.504-0.388s-0.45 0.064-0.587 0.245c-0.137 0.181-0.167 0.423-0.077 0.632 0.752 1.798 1.137 3.727 1.133 5.676 0 8.125-6.61 14.734-14.734 14.734s-14.734-6.61-14.734-14.734c0-8.125 6.61-14.734 14.734-14.734 1.651-0.002 3.291 0.274 4.85 0.817 0.214 0.076 0.452 0.031 0.624-0.117s0.252-0.376 0.209-0.599-0.202-0.406-0.416-0.479c-1.693-0.59-3.474-0.89-5.267-0.888-8.823 0-16 7.177-16 16s7.177 16 16 16z">
			</path>
			<path d="M22.273 4.115c-0.247-0.247-0.648-0.247-0.895 0s-0.247 0.648 0 0.895l2.945 2.945c0.243 0.243 0.636 0.248 0.885 0.010l5.191-4.958c0.166-0.156 0.236-0.388 0.183-0.609s-0.221-0.397-0.44-0.46c-0.218-0.063-0.454-0.004-0.617 0.154l-4.744 4.531-2.507-2.507z">
			</path>
			<path d="M16 9.88c1.494 0.002 2.704 1.212 2.706 2.706 0 0.35 0.283 0.633 0.633 0.633s0.633-0.283 0.633-0.633c-0.002-1.948-1.416-3.608-3.339-3.921v-1.253c0-0.35-0.283-0.633-0.633-0.633s-0.633 0.283-0.633 0.633v1.253c-2.043 0.331-3.49 2.175-3.324 4.238s1.887 3.653 3.957 3.654c1.488 0 2.697 1.202 2.706 2.69s-1.186 2.704-2.674 2.721c-0.011-0.001-0.021-0.002-0.031-0.002s-0.021 0.001-0.031 0.002c-1.481-0.019-2.673-1.224-2.674-2.705 0-0.35-0.283-0.633-0.633-0.633s-0.633 0.283-0.633 0.633c0.002 1.948 1.416 3.608 3.339 3.921v1.405c0 0.35 0.283 0.633 0.633 0.633s0.633-0.283 0.633-0.633v-1.405c2.043-0.33 3.491-2.174 3.325-4.238s-1.888-3.654-3.958-3.654c-0.97 0.005-1.87-0.509-2.356-1.349s-0.487-1.875 0-2.715c0.487-0.839 1.386-1.354 2.356-1.348v-0z">
			</path>
		</symbol>
		<symbol id="icon-headphones" viewBox="0 0 32 32">
			<path d="M16 0c-7.754 0-14.063 6.308-14.063 14.063 0 0.859 0 7.507 0 7.625 0 1.551 1.262 2.813 2.813 2.813h1.099c0.387 1.091 1.429 1.875 2.651 1.875 1.551 0 2.813-1.262 2.813-2.812v-7.625c0-1.551-1.262-2.812-2.813-2.812-1.222 0-2.264 0.784-2.651 1.875h-1.099c-0.329 0-0.644 0.057-0.938 0.161v-1.099c0-6.72 5.467-12.188 12.188-12.188s12.187 5.467 12.187 12.188v1.099c-0.293-0.104-0.609-0.161-0.937-0.161h-1.099c-0.387-1.091-1.429-1.875-2.651-1.875-1.551 0-2.813 1.262-2.813 2.812v7.625c0 1.551 1.262 2.812 2.813 2.812 0.284 0 0.558-0.043 0.816-0.121-0.351 1.154-1.424 1.996-2.691 1.996h-2.974c-0.387-1.091-1.429-1.875-2.651-1.875-1.551 0-2.813 1.262-2.813 2.812s1.262 2.813 2.813 2.813c1.222 0 2.264-0.784 2.651-1.875h2.974c2.585 0 4.688-2.103 4.688-4.688v-0.937h0.937c1.551 0 2.813-1.262 2.813-2.813 0-0.116 0-6.766 0-7.625 0-7.754-6.308-14.063-14.063-14.063zM7.563 15.937c0-0.517 0.421-0.937 0.937-0.937s0.937 0.421 0.937 0.937v7.625c0 0.517-0.421 0.937-0.937 0.937s-0.937-0.421-0.937-0.937v-7.625zM4.75 16.875h0.938v5.75h-0.938c-0.517 0-0.938-0.421-0.938-0.938v-3.875c0-0.517 0.421-0.938 0.938-0.938zM16 30.125c-0.517 0-0.937-0.421-0.937-0.938s0.421-0.937 0.937-0.937 0.937 0.421 0.937 0.937c0 0.517-0.421 0.938-0.937 0.938zM24.437 23.563c0 0.517-0.421 0.937-0.937 0.937s-0.937-0.421-0.937-0.937v-7.625c0-0.517 0.421-0.937 0.937-0.937s0.937 0.421 0.937 0.937v7.625zM28.187 21.687c0 0.517-0.421 0.938-0.937 0.938h-0.937v-5.75h0.937c0.517 0 0.937 0.421 0.937 0.938v3.875z">
			</path>
		</symbol>
		<symbol id="icon-logo" viewBox="0 0 28 32">
			<path d="M12 1.283c1.375-0.794 3.069-0.794 4.444 0l9.412 5.434c1.375 0.794 2.222 2.261 2.222 3.849v10.868c0 1.588-0.847 3.055-2.222 3.849l-9.412 5.434c-1.375 0.794-3.069 0.794-4.444 0l-9.412-5.434c-1.375-0.794-2.222-2.261-2.222-3.849v-10.868c0-1.588 0.847-3.055 2.222-3.849l9.412-5.434z">
			</path>
		</symbol>
		<symbol id="icon-plant" viewBox="0 0 32 32">
			<path d="M12.865 4.588c-2.796-2.794-8.266-3.118-12.139-3.118-0.401 0-0.727 0.325-0.727 0.726 0 3.872 0.323 9.343 3.118 12.139 1.18 1.18 2.989 1.707 4.782 1.707 1.949 0 3.88-0.623 4.965-1.709 2.082-2.082 2.464-7.283 0-9.745zM11.838 13.308c-1.555 1.553-5.872 1.819-7.691 0-2.257-2.257-2.647-6.841-2.69-10.38 3.54 0.042 8.124 0.433 10.38 2.69 1.819 1.819 1.553 6.138 0 7.691z">
			</path>
			<path d="M31.274 4.344c-3.872 0-9.343 0.323-12.139 3.118-2.464 2.463-2.082 7.663 0 9.745 1.085 1.084 3.015 1.707 4.964 1.707 1.793 0 3.601-0.526 4.783-1.706 2.794-2.796 3.118-8.266 3.118-12.139 0-0.401-0.325-0.727-0.726-0.727zM27.852 16.18c-1.819 1.819-6.138 1.553-7.691 0s-1.819-5.872 0-7.691c2.257-2.257 6.841-2.647 10.38-2.69-0.042 3.541-0.433 8.125-2.69 10.38z">
			</path>
			<path d="M26.026 10.633c-0.171-0.365-0.663-0.49-1.024-0.321-5.572 2.62-8.31 7.188-9.554 11.884-1.539-9.985-5.989-13.029-7.877-14.321-0.235-0.161-0.418-0.279-0.52-0.379-0.283-0.283-0.744-0.283-1.027 0s-0.283 0.744 0 1.027c0.144 0.142 0.392 0.321 0.728 0.551 2.127 1.454 7.778 5.321 7.778 20.73 0 0.401 0.325 0.727 0.727 0.727s0.727-0.325 0.727-0.725c0-6.226 1.672-14.434 9.638-18.177 0-0.001 0.118-0.057 0.118-0.057 0.362-0.171 0.459-0.575 0.288-0.939z">
			</path>
		</symbol>
		<symbol id="icon-search" viewBox="0 0 32 32">
			<path d="M31.008 27.231l-7.58-6.447c-0.784-0.705-1.622-1.029-2.299-0.998 1.789-2.096 2.87-4.815 2.87-7.787 0-6.627-5.373-12-12-12s-12 5.373-12 12 5.373 12 12 12c2.972 0 5.691-1.081 7.787-2.87-0.031 0.677 0.293 1.515 0.998 2.299l6.447 7.58c1.104 1.226 2.907 1.33 4.007 0.23s0.997-2.903-0.23-4.007zM12 20c-4.418 0-8-3.582-8-8s3.582-8 8-8 8 3.582 8 8-3.582 8-8 8z">
			</path>
		</symbol>
		<symbol id="icon-cart" viewBox="0 0 32 32">
			<path d="M12 29c0 1.657-1.343 3-3 3s-3-1.343-3-3c0-1.657 1.343-3 3-3s3 1.343 3 3z">
			</path>
			<path d="M32 29c0 1.657-1.343 3-3 3s-3-1.343-3-3c0-1.657 1.343-3 3-3s3 1.343 3 3z">
			</path>
			<path d="M32 16v-12h-24c0-1.105-0.895-2-2-2h-6v2h4l1.502 12.877c-0.915 0.733-1.502 1.859-1.502 3.123 0 2.209 1.791 4 4 4h24v-2h-24c-1.105 0-2-0.895-2-2 0-0.007 0-0.014 0-0.020l26-3.98z">
			</path>
		</symbol>
		<symbol id="icon-close" viewBox="0 0 32 32">
			<path d="M32 3.223l-3.223-3.223-12.777 12.777-12.777-12.777-3.223 3.223 12.777 12.777-12.777 12.777 3.223 3.223 12.777-12.777 12.777 12.777 3.223-3.223-12.777-12.777 12.777-12.777z">
			</path>
		</symbol>
	</defs>
</svg>
